<svg id="_x33_0" enable-background="new 0 0 64 64" height="512" viewBox="0 0 64 64" width="512" xmlns="http://www.w3.org/2000/svg"><path d="m32 1c-17.093 0-31 13.906-31 31s13.907 31 31 31 31-13.906 31-31-13.907-31-31-31zm24.811 46h-7.811v-2.656l5.567-7.158c.333.207.648.444.928.723.97.971 1.505 2.261 1.505 3.634v5.128c-.064.109-.124.221-.189.329zm-48.323-14.155c-.323-2.592-.488-5.231-.488-7.845 0-4.411 3.589-8 8-8 2.979 0 5.646 1.621 7.044 4.234-.028.252-.044.507-.044.766v.752c0 .936.15 1.859.446 2.748.14.42.323.823.525 1.216-.055 2.043-.206 4.103-.46 6.129l-.3 2.397c-.512-.272-1.056-.483-1.619-.624l-.604-.151c-.718-.18-1.275-.737-1.455-1.456l-.036-.145c1.513-1.091 2.503-2.863 2.503-4.866v-2.266c0-1.483-1.107-2.76-2.576-2.97l-2.313-.331c-1.203-.171-2.111-1.217-2.111-2.433v-1h-2v1c0 .501.085.987.242 1.441-1.934.724-3.242 2.576-3.242 4.682v1.877c0 2.003.99 3.775 2.503 4.866l-.036.146c-.18.718-.737 1.275-1.455 1.455l-.604.151c-.568.141-1.108.36-1.619.632zm23.512-29.653c1.196.817 4.391 3.273 7.317 7.808h-14.64c2.929-4.541 6.128-6.991 7.323-7.808zm-9.681 7.808h-10.287c4.462-4.245 10.265-7.087 16.705-7.811-1.814 1.573-4.237 4.113-6.418 7.811zm12.947-7.811c6.438.725 12.241 3.567 16.702 7.811h-10.282c-2.181-3.698-4.606-6.237-6.42-7.811zm5.24 9.811c.544.993 1.061 2.069 1.543 3.227-.506.348-.962.761-1.361 1.226-.606-1.439-2.03-2.453-3.688-2.453h-7c-2.694 0-5.033 1.532-6.203 3.768-.602-.757-1.3-1.414-2.08-1.959.546-1.383 1.146-2.651 1.781-3.809zm12.127 10.824c-1.37-.457-2.632-1.237-3.652-2.258l-.981-.98-.98.98c-1.02 1.021-2.283 1.801-3.651 2.257-.819.273-1.369 1.035-1.369 1.898v.539c-.27-.438-.494-.904-.657-1.393-.227-.683-.343-1.395-.343-2.115v-.752c0-2.757 2.243-5 5-5h3.248c3.171 0 5.752 2.58 5.752 5.752 0 .72-.116 1.432-.343 2.115-.163.489-.387.955-.657 1.393v-.539c0-.863-.55-1.625-1.367-1.897zm-9.633 23.176v-5.457c0-1.292-.348-2.527-.987-3.612l4.987 6.412v2.657zm-19.519 4c-.344-.631-.676-1.303-.998-2h19.033c-.322.697-.654 1.369-1 2zm15.837 2c-2.927 4.535-6.124 6.994-7.319 7.81-1.195-.812-4.391-3.26-7.32-7.81zm-23.318-21c-2.206 0-4-1.794-4-4v-1.877c0-1.379.935-2.576 2.271-2.91l.084-.021c.658.642 1.514 1.085 2.473 1.223l2.313.331c.49.068.859.494.859.988v2.266c0 2.206-1.794 4-4 4zm-1.677 1.757c.533.155 1.094.243 1.677.243s1.145-.088 1.678-.243c.424 1.308 1.479 2.313 2.826 2.649l.357.09-1.825 3.504h-6.073l-1.824-3.504.357-.089c1.347-.337 2.403-1.343 2.827-2.65zm27.882-4.228c.36 1.362 1.185 2.535 2.298 3.337l-.328 1.31-1.768.442c-.868.216-1.689.598-2.416 1.117-.723-.514-1.532-.901-2.398-1.117l-1.769-.442-.328-1.31c1.113-.802 1.938-1.975 2.298-3.337l.508-.484c.69-.657 1.256-1.434 1.696-2.276.441.842 1.007 1.619 1.697 2.277zm1.178 6.906 1.43-.358 1.456.971-1.522 1.142zm-2.383 10.565h-8v-2.656l5.567-7.158c.333.207.648.444.928.723.97.971 1.505 2.261 1.505 3.634zm-9-4.629-2.024-2.603 2.024-1.518 2.024 1.518zm3.252-4.182-1.522-1.141 1.456-.971 1.43.357zm-3.252-6.189c-2.206 0-4-1.794-4-4v-1.877c0-1.379.935-2.576 2.271-2.91l.084-.021c.658.642 1.514 1.085 2.473 1.223l2.313.331c.49.068.859.494.859.988v2.266c0 2.206-1.794 4-4 4zm0 2c.576 0 1.132-.086 1.659-.239l.199.797-1.858 1.24-1.859-1.239.199-.797c.528.152 1.084.238 1.66.238zm-3.187 2.077 1.456.971-1.522 1.142-1.365-1.755zm-4.308 1.832c.28-.28.595-.516.928-.723l5.567 7.157v2.657h-8v-5.457c0-1.373.535-2.663 1.505-3.634zm14.495-15.909v.752c0 .72-.116 1.432-.343 2.115-.163.489-.387.955-.657 1.393v-.525c0-1.483-1.107-2.76-2.576-2.97l-2.313-.331c-1.203-.172-2.111-1.218-2.111-2.434v-1h-2v1c0 .501.085.987.242 1.441-1.934.724-3.242 2.576-3.242 4.682v.137c-.27-.438-.494-.904-.657-1.393-.227-.683-.343-1.395-.343-2.115v-.752c0-2.757 2.243-5 5-5h7c1.103 0 2 .897 2 2zm-13.148 7.193.353.336c.36 1.362 1.185 2.535 2.298 3.337l-.328 1.31-1.768.442c-.398.099-.78.244-1.153.409l.242-1.934c.161-1.291.272-2.595.356-3.9zm-7.857 12.807-1.995 3.834-1.995-3.834zm3.11-1.64c-.065.388-.105.782-.105 1.183v5.457h-3.352zm26.895 2.011-2.024-2.603 2.024-1.518 2.024 1.518zm3.252-4.182-1.522-1.141 1.456-.971 1.43.357zm-1.393-3.63-1.859 1.239-1.859-1.239.199-.797c.528.152 1.084.238 1.66.238s1.132-.086 1.659-.239zm-1.859-2.559c-2.206 0-4-1.794-4-4v-2.279c1.473-.49 2.845-1.291 4-2.329 1.155 1.038 2.526 1.838 4 2.329v2.279c0 2.206-1.794 4-4 4zm-39.495 5.909c.24-.239.507-.444.787-.63l5.06 9.721h-7.163c-.065-.108-.125-.22-.189-.329v-5.128c0-1.373.535-2.663 1.505-3.634zm11.793 11.091c.3.697.613 1.362.935 2h-11.114c-.559-.643-1.091-1.309-1.592-2zm2.026 4c2.183 3.697 4.603 6.239 6.415 7.812-6.44-.724-12.245-3.567-16.707-7.812zm19.352 0h10.292c-4.462 4.245-10.267 7.087-16.707 7.812 1.813-1.573 4.233-4.115 6.415-7.812zm1.091-2c.323-.638.635-1.303.935-2h11.771c-.502.691-1.033 1.357-1.592 2zm14.142-14.505c-.916-.915-2.062-1.564-3.316-1.877l-1.769-.442-.328-1.31c1.113-.802 1.938-1.975 2.298-3.337l.508-.484c1.025-.977 1.803-2.202 2.25-3.544.298-.89.448-1.813.448-2.749 0-4.274-3.478-7.752-7.752-7.752h-3.248c-.752 0-1.475.122-2.155.343-.343-.819-.701-1.603-1.075-2.343h11.111c4.429 5.094 7.119 11.737 7.119 19 0 3.726-.714 7.286-2 10.562v-1.019c0-1.907-.743-3.699-2.091-5.048zm-46.79-23.495h11.099c-.443.877-.859 1.828-1.257 2.816-1.226-.526-2.565-.816-3.961-.816-5.514 0-10 4.486-10 10 0 2.696.169 5.419.504 8.093l.445 3.559c-1.255 1.33-1.949 3.055-1.949 4.891v1.019c-1.286-3.276-2-6.836-2-10.562 0-7.263 2.69-13.906 7.119-19z"/></svg>